<svg width="21" height="16" viewBox="0 0 21 16" fill="none" xmlns="http://www.w3.org/2000/svg">
<path d="M19.5 12.3814C19.5 12.3814 2.5 16.3284 1.50002 15.8284C0.500049 15.3284 0 15.3284 0 15.3284C0 15.3284 9 5.82857 6.93363 1.82863C9.31 0.00219238 9.31 0.00218964 9.31 0.00218964L20.87 9.71219L19.5 12.3814Z" fill="#4499E7"/>
<path d="M9.4756 0.212891L9.31251 0C8.77548 0.451173 7.5 1.35001 6.9336 1.82813C8.99997 5.82813 5.72205e-06 15.3281 5.72205e-06 15.3281C5.72205e-06 15.3281 0.500042 15.3281 1.5 15.8281C2.49997 16.3281 19.5 12.3809 19.5 12.3809L20.8721 9.71289L20.2266 9.38085H19.5C19.0744 9.38086 18.6476 9.47521 18.5293 9.5C18.3007 9.54789 18.0328 9.61164 17.75 9.68261C17.1799 9.82568 16.4417 10.025 15.6104 10.2539C14.0013 10.6969 11.7491 11.3346 9.70118 11.9004C8.5576 12.2164 7.42602 12.5226 6.37599 12.7988C6.50804 12.5985 6.64058 12.3958 6.77149 12.1904C7.81732 10.5495 8.88409 8.64445 9.54689 6.79101C10.1446 5.11944 10.7296 2.64041 9.59865 0.451173L9.4756 0.212891Z" fill="#70ACE2"/>
</svg>