<svg width="170" height="64" viewBox="0 0 170 64" fill="none" xmlns="http://www.w3.org/2000/svg">
<path d="M6.66274 23H3.61586L3.63976 20.3355H6.66274C7.54693 20.3355 8.24393 20.1762 8.75373 19.8575C9.2715 19.5309 9.63792 19.0251 9.853 18.3401C10.076 17.655 10.1876 16.7708 10.1876 15.6875V12.9035C10.1876 12.0751 10.1278 11.3701 10.0083 10.7886C9.88884 10.1991 9.69368 9.7212 9.42285 9.35478C9.15201 8.98836 8.79754 8.71752 8.35943 8.54228C7.92132 8.36703 7.37965 8.27941 6.73443 8.27941H3.55612V5.60294H6.73443C7.73811 5.60294 8.64619 5.76624 9.45869 6.09283C10.2712 6.41146 10.9682 6.88143 11.5497 7.50276C12.1391 8.12408 12.5892 8.89277 12.8999 9.80882C13.2105 10.7169 13.3659 11.7564 13.3659 12.9274V15.6875C13.3659 16.8585 13.2105 17.898 12.8999 18.8061C12.5892 19.7142 12.1391 20.4789 11.5497 21.1002C10.9682 21.7215 10.2632 22.1955 9.4348 22.5221C8.61433 22.8407 7.69031 23 6.66274 23ZM5.45594 5.60294V23H2.25373V5.60294H5.45594ZM25.4583 20.3355V23H17.9068V20.3355H25.4583ZM18.8268 5.60294V23H15.6246V5.60294H18.8268ZM24.4426 12.7482V15.341H17.9068V12.7482H24.4426ZM25.4105 5.60294V8.27941H17.9068V5.60294H25.4105ZM32.9146 15.2812H29.354L29.342 12.9154H32.4367C32.9146 12.9154 33.3129 12.8278 33.6315 12.6526C33.9581 12.4694 34.2011 12.2065 34.3604 11.864C34.5277 11.5214 34.6113 11.1032 34.6113 10.6094C34.6113 10.0518 34.5356 9.6057 34.3843 9.27114C34.2409 8.92861 34.0099 8.6777 33.6913 8.51838C33.3726 8.35907 32.9584 8.27941 32.4486 8.27941H30.3815V23H27.1793V5.60294H32.4486C33.285 5.60294 34.0338 5.69853 34.6949 5.88971C35.3641 6.07292 35.9296 6.35968 36.3916 6.75C36.8536 7.14032 37.2041 7.63419 37.4431 8.23162C37.69 8.82108 37.8135 9.52206 37.8135 10.3346C37.8135 11.0515 37.6661 11.7086 37.3714 12.3061C37.0767 12.9035 36.6266 13.3934 36.0212 13.7757C35.4238 14.1581 34.6631 14.3771 33.7391 14.4329L32.9146 15.2812ZM32.7951 23H28.3861L29.7483 20.3355H32.7951C33.289 20.3355 33.6873 20.2319 33.99 20.0248C34.3006 19.8177 34.5316 19.5309 34.683 19.1645C34.8343 18.7901 34.91 18.36 34.91 17.8741C34.91 17.3483 34.8423 16.8903 34.7069 16.5C34.5794 16.1097 34.3684 15.811 34.0736 15.6039C33.7869 15.3888 33.4005 15.2812 32.9146 15.2812H29.9514L29.9753 12.9154H33.6674L34.4201 13.8355C35.2964 13.8275 36.0053 14.0187 36.547 14.409C37.0886 14.7993 37.4829 15.3051 37.7299 15.9265C37.9768 16.5398 38.1003 17.201 38.1003 17.9099C38.1003 19.0172 37.8932 19.9491 37.479 20.7059C37.0647 21.4626 36.4633 22.0362 35.6747 22.4265C34.8861 22.8088 33.9263 23 32.7951 23ZM48.2331 5.60294H51.4353V17.6232C51.4353 18.9534 51.1884 20.0328 50.6945 20.8612C50.2006 21.6896 49.5275 22.295 48.6752 22.6774C47.8229 23.0518 46.863 23.239 45.7956 23.239C44.7043 23.239 43.7325 23.0518 42.8802 22.6774C42.0278 22.295 41.3587 21.6896 40.8728 20.8612C40.3949 20.0328 40.1559 18.9534 40.1559 17.6232V5.60294H43.3462V17.6232C43.3462 18.4118 43.4417 19.0211 43.6329 19.4513C43.8321 19.8814 44.1109 20.1762 44.4693 20.3355C44.8278 20.4948 45.2699 20.5744 45.7956 20.5744C46.3213 20.5744 46.7634 20.4948 47.1219 20.3355C47.4803 20.1762 47.7552 19.8814 47.9463 19.4513C48.1375 19.0211 48.2331 18.4118 48.2331 17.6232V5.60294ZM65.3797 13.9669V20.9807C65.1487 21.2436 64.8062 21.5542 64.3522 21.9127C63.8981 22.2632 63.2967 22.5738 62.5479 22.8447C61.8071 23.1075 60.8871 23.239 59.7878 23.239C58.8399 23.239 57.9756 23.0876 57.195 22.7849C56.4223 22.4822 55.7572 22.0242 55.1996 21.4108C54.6499 20.7895 54.2238 20.0169 53.9211 19.0928C53.6264 18.1688 53.479 17.0775 53.479 15.8189V12.784C53.479 11.5334 53.6144 10.4461 53.8852 9.52206C54.164 8.59007 54.5663 7.81342 55.092 7.1921C55.6257 6.57077 56.267 6.10876 57.0158 5.80607C57.7645 5.50337 58.6169 5.35202 59.5727 5.35202C60.8393 5.35202 61.8828 5.57108 62.7033 6.00919C63.5317 6.43934 64.161 7.07659 64.5911 7.92096C65.0292 8.76532 65.2921 9.80086 65.3797 11.0276H62.2731C62.2094 10.2947 62.0779 9.70925 61.8788 9.27114C61.6797 8.83303 61.3969 8.5144 61.0305 8.31526C60.672 8.11611 60.206 8.01654 59.6325 8.01654C59.1227 8.01654 58.6806 8.10815 58.3062 8.29136C57.9398 8.46661 57.6331 8.7454 57.3862 9.12776C57.1472 9.51011 56.968 10 56.8485 10.5974C56.737 11.1949 56.6812 11.9157 56.6812 12.7601V15.8189C56.6812 16.6633 56.7489 17.3882 56.8843 17.9936C57.0277 18.599 57.2348 19.0928 57.5056 19.4752C57.7765 19.8575 58.115 20.1363 58.5213 20.3116C58.9275 20.4868 59.4015 20.5744 59.9431 20.5744C60.4211 20.5744 60.8034 20.5267 61.0902 20.4311C61.377 20.3355 61.604 20.2279 61.7713 20.1085C61.9465 19.981 62.0859 19.8854 62.1895 19.8217V16.4283H59.5369V13.9669H65.3797ZM75.0112 5.60294L77.8669 13.6443L80.7106 5.60294H84.2235L79.4799 16.6434V23H76.2538V16.6434L71.5103 5.60294H75.0112ZM97.1523 12.9154V15.8428C97.1523 17.0695 97.0089 18.1449 96.7222 19.0689C96.4354 19.993 96.0212 20.7656 95.4795 21.3869C94.9378 22.0003 94.2886 22.4623 93.5319 22.773C92.7752 23.0836 91.9388 23.239 91.0227 23.239C90.0987 23.239 89.2583 23.0836 88.5016 22.773C87.7448 22.4623 87.0916 22.0003 86.542 21.3869C86.0003 20.7656 85.5782 19.993 85.2755 19.0689C84.9807 18.1449 84.8334 17.0695 84.8334 15.8428V12.9154C84.8334 11.6648 84.9807 10.5695 85.2755 9.6296C85.5702 8.68964 85.9884 7.90502 86.5301 7.27574C87.0797 6.64645 87.7329 6.17249 88.4896 5.85386C89.2464 5.52727 90.0828 5.36397 90.9988 5.36397C91.9228 5.36397 92.7592 5.52727 93.508 5.85386C94.2647 6.17249 94.9139 6.64645 95.4556 7.27574C96.0052 7.90502 96.4234 8.68964 96.7102 9.6296C97.0049 10.5695 97.1523 11.6648 97.1523 12.9154ZM93.974 15.8428V12.8915C93.974 12.0392 93.9103 11.3064 93.7828 10.693C93.6554 10.0797 93.4642 9.5818 93.2093 9.19945C92.9544 8.80913 92.6397 8.52236 92.2654 8.33915C91.8989 8.15594 91.4767 8.06434 90.9988 8.06434C90.5129 8.06434 90.0828 8.15594 89.7084 8.33915C89.3419 8.52236 89.0313 8.80913 88.7764 9.19945C88.5294 9.5818 88.3423 10.0797 88.2148 10.693C88.0873 11.3064 88.0236 12.0392 88.0236 12.8915V15.8428C88.0236 16.6792 88.0873 17.3961 88.2148 17.9936C88.3423 18.591 88.5334 19.0769 88.7883 19.4513C89.0512 19.8257 89.3658 20.1045 89.7323 20.2877C90.1066 20.4629 90.5368 20.5506 91.0227 20.5506C91.5006 20.5506 91.9228 20.4629 92.2892 20.2877C92.6636 20.1045 92.9743 19.8257 93.2212 19.4513C93.4761 19.0769 93.6633 18.591 93.7828 17.9936C93.9103 17.3961 93.974 16.6792 93.974 15.8428ZM107.321 5.60294H110.523V17.6232C110.523 18.9534 110.276 20.0328 109.782 20.8612C109.288 21.6896 108.615 22.295 107.763 22.6774C106.911 23.0518 105.951 23.239 104.883 23.239C103.792 23.239 102.82 23.0518 101.968 22.6774C101.116 22.295 100.447 21.6896 99.9607 20.8612C99.4827 20.0328 99.2438 18.9534 99.2438 17.6232V5.60294H102.434V17.6232C102.434 18.4118 102.53 19.0211 102.721 19.4513C102.92 19.8814 103.199 20.1762 103.557 20.3355C103.916 20.4948 104.358 20.5744 104.883 20.5744C105.409 20.5744 105.851 20.4948 106.21 20.3355C106.568 20.1762 106.843 19.8814 107.034 19.4513C107.225 19.0211 107.321 18.4118 107.321 17.6232V5.60294ZM112.878 5.60294H118.29C119.445 5.60294 120.429 5.80208 121.241 6.20037C122.054 6.59865 122.671 7.18811 123.094 7.96875C123.524 8.74939 123.739 9.70925 123.739 10.8483C123.739 11.7564 123.607 12.545 123.344 13.2142C123.09 13.8753 122.723 14.4289 122.245 14.875C121.775 15.3211 121.206 15.6676 120.537 15.9145L119.569 16.4642H115.088L115.076 13.7996H118.219C118.736 13.7996 119.166 13.6841 119.509 13.4531C119.859 13.2221 120.118 12.9035 120.286 12.4972C120.461 12.083 120.548 11.6091 120.548 11.0754C120.548 10.4939 120.469 9.99602 120.31 9.5818C120.158 9.15962 119.915 8.83701 119.581 8.61397C119.254 8.39093 118.824 8.27941 118.29 8.27941H116.08V23H112.878V5.60294ZM120.883 23L117.621 15.2096H120.979L124.3 22.8327V23H120.883Z" fill="#8C6239"/>
<path d="M5.98106 36.7213V57.0625H2.26488V36.7213H5.98106ZM23.1375 36.7213V57.0625H19.4912L12.7015 43.6647V57.0625H9.125V36.7213H12.7154L19.561 50.2449V36.7213H23.1375ZM33.4484 36.7213V57.0625H29.7322V36.7213H33.4484ZM38.5756 36.7213V39.8507H24.6888V36.7213H38.5756ZM52.0298 53.9471V57.0625H43.2004V53.9471H52.0298ZM44.2761 36.7213V57.0625H40.532V36.7213H44.2761ZM50.8423 45.0757V48.1074H43.2004V45.0757H50.8423ZM51.9739 36.7213V39.8507H43.2004V36.7213H51.9739ZM54.0561 36.7213H60.3848C61.7353 36.7213 62.8855 36.9542 63.8355 37.4199C64.7855 37.8855 65.5073 38.5748 66.0009 39.4875C66.5039 40.4002 66.7553 41.5225 66.7553 42.8544C66.7553 43.9162 66.6017 44.8382 66.2943 45.6206C65.9963 46.3936 65.5678 47.0409 65.009 47.5625C64.4595 48.0841 63.7936 48.4892 63.0112 48.7779L61.8796 49.4206H56.6406L56.6267 46.3051H60.3009C60.9063 46.3051 61.4093 46.1701 61.8098 45.9C62.2196 45.6299 62.5223 45.2574 62.7178 44.7824C62.9228 44.298 63.0252 43.7439 63.0252 43.1199C63.0252 42.44 62.9321 41.8578 62.7458 41.3735C62.5688 40.8799 62.2848 40.5027 61.8936 40.2419C61.5117 39.9811 61.0088 39.8507 60.3848 39.8507H57.8002V57.0625H54.0561V36.7213ZM63.4164 57.0625L59.6024 47.9537H63.5281L67.412 56.8669V57.0625H63.4164ZM75.0544 52.9971L79.1478 36.7213H83.1853L77.2059 57.0625H74.4537L75.0544 52.9971ZM71.5059 36.7213L75.5853 52.9971L76.214 57.0625H73.4478L67.4963 36.7213H71.5059ZM88.6344 36.7213V57.0625H84.9182V36.7213H88.6344ZM103.276 53.9471V57.0625H94.4467V53.9471H103.276ZM95.5225 36.7213V57.0625H91.7783V36.7213H95.5225ZM102.089 45.0757V48.1074H94.4467V45.0757H102.089ZM103.22 36.7213V39.8507H94.4467V36.7213H103.22ZM109.536 53.3044L112.777 36.7213H114.858L115.152 40.0603L111.631 57.0625H109.41L109.536 53.3044ZM107.943 36.7213L110.541 53.2765L110.374 57.0625H107.971L104.227 36.7213H107.943ZM118.127 53.2066L120.712 36.7213H124.414L120.684 57.0625H118.281L118.127 53.2066ZM115.892 36.7213L119.147 53.3743L119.217 57.0625H117.01L113.545 40.0324L113.838 36.7213H115.892Z" fill="#1E78CD"/>
<path d="M128.017 4.88478C135.141 4.47638 143.984 5.49881 151.665 8.47967C159.338 11.4579 165.946 16.432 168.414 23.9866L168.578 24.5069C170.217 29.8658 169.979 34.5898 168.16 38.7434C166.322 42.9408 162.895 46.4964 158.294 49.528C158.331 51.6276 159.222 53.992 160.269 56.0551C161.355 58.1972 162.563 59.9341 163.011 60.6048L163.011 60.6063L164.796 63.2911L163.883 63.3924L163.822 62.8361L163.883 63.3931H163.879C163.877 63.3933 163.874 63.3935 163.872 63.3938C163.866 63.3944 163.859 63.3953 163.85 63.396C163.832 63.3976 163.807 63.3998 163.776 63.4019C163.712 63.406 163.621 63.41 163.503 63.4122C163.267 63.4165 162.923 63.412 162.473 63.3777C161.573 63.3089 160.252 63.1214 158.53 62.6518C155.121 61.7222 150.149 59.6875 143.77 55.2844C138.611 56.4394 133.944 56.9691 128.325 56.56L127.806 56.5226V42.5379L128.48 42.6781C129.268 42.8425 130.006 43.258 130.462 44.2025C130.516 44.3146 130.55 44.4469 130.572 44.5548C130.598 44.6745 130.62 44.8153 130.641 44.9695C130.682 45.2785 130.719 45.6687 130.753 46.1056C130.82 46.981 130.874 48.0719 130.917 49.1332C130.959 50.1955 130.99 51.2338 131.011 52.0058C131.018 52.3007 131.024 52.557 131.029 52.7611C135.737 52.9732 139.785 52.4701 144.431 51.2932L144.741 51.2139L144.967 51.4422C148.432 54.951 152.37 57.9126 157.417 59.4349C155.646 55.9009 154.311 52.2497 154.243 48.2715L154.238 47.9801L154.473 47.8091C157.351 45.7139 159.939 43.8099 162.013 41.2439C165.586 36.8257 166.622 31.8465 165.583 27.2093C164.575 22.7079 161.602 18.4843 157.005 15.3993L156.555 15.1043C148.938 10.2194 139.847 8.4297 130.621 8.45251C130.602 11.1467 130.716 15.4073 130.53 16.5347C130.343 17.662 127.538 18.7894 127.538 18.7894C127.538 18.7894 127.539 17.191 127.538 16.9296L127.488 4.91561L128.017 4.88478Z" fill="#1E78CD"/>
<path d="M127.118 30.1009C128.697 30.8843 129.614 31.3424 129.867 32.162C130.41 33.8736 127.6 34.9945 127.6 34.9945C127.6 34.9945 127.793 33.7892 127.359 32.9696C126.804 31.9209 123.548 32.0294 122.076 29.6549C124.102 28.4978 128.649 26.5693 128.842 26.3644C129.035 26.1595 128.601 25.3278 127.407 23.1582C127.407 23.1582 133.968 25.9063 133.811 26.1354" fill="#A67C52"/>
<path d="M141.695 26.2782L136.666 26.2903L136.582 22.8431L141.056 22.8069L141.249 19.9503L147.629 19.8418L147.786 23.5422L141.792 23.518L141.695 26.2782Z" fill="#4B3927"/>
<path d="M146.664 37.125L138.451 37.3058L138.355 33.9785L146.652 33.9906L146.664 37.125Z" fill="#4B3927"/>
<path d="M153.623 29.7969L148.968 29.7728L148.702 26.3376L153.442 26.2773L153.623 29.7969Z" fill="#4B3927"/>
<path d="M152.137 42.1664L147.205 42.2051L147.218 43.9166L152.151 43.8779L152.137 42.1664Z" fill="#4B3927"/>
<path d="M119.495 28.4844C120.014 28.4844 120.434 28.905 120.434 29.4238C120.434 29.9427 120.014 30.3633 119.495 30.3633L2.25058 30.3633L2.25058 28.4844L119.495 28.4844Z" fill="#4B3927"/>
</svg>
